<svg width="291" height="111" viewBox="0 0 291 111" fill="none" xmlns="http://www.w3.org/2000/svg">
<rect x="0.928711" y="0.120605" width="290" height="110" rx="2" fill="#037E5F"/>
<path fill-rule="evenodd" clip-rule="evenodd" d="M60.121 63.6579C62.8267 66.4403 66.1747 67.193 70.2755 67.193C75.9168 67.193 80.6182 64.2214 80.6182 58.7672C80.6182 56.2857 80.0514 54.2911 78.6225 52.9005C77.4945 51.7725 75.7636 51.0197 73.3587 50.6806L70.1245 50.2276C69.1846 50.1182 68.619 49.7757 68.2787 49.4387C67.8695 49.0284 67.7557 48.5372 67.7557 48.198C67.7557 47.0328 68.6945 45.7144 70.9899 45.7144C71.0547 45.7144 71.1227 45.714 71.1937 45.7136C72.3994 45.7075 74.4682 45.697 76.0667 47.2975L80.2046 43.1574C77.9102 40.8619 75.0152 39.9615 71.1781 39.9615C65.0828 39.9615 61.3989 43.5349 61.3989 48.4234C61.3989 50.7178 61.9996 52.5231 63.2403 53.8021C64.4449 55.0428 66.2524 55.8339 68.619 56.173L71.8554 56.6249C72.7197 56.7376 73.2843 57.0002 73.6235 57.3372C73.9966 57.7529 74.1498 58.2792 74.1498 58.9193C74.1498 60.4587 72.9068 61.3252 70.3138 61.3252C68.1671 61.3252 65.7239 60.8373 64.3322 59.4434L60.121 63.6579ZM55.7959 64.1831C57.8277 62.1141 58.5071 59.5954 58.5071 55.2693V51.5449H48.0102V57.0385H51.961V57.4138C51.961 58.4302 51.6962 59.52 50.9457 60.2727C50.3439 60.9139 49.4041 61.3252 48.0102 61.3252C46.8055 61.3252 45.9062 60.8373 45.416 60.1961C44.8142 59.4073 44.4389 58.4652 44.4389 53.5767C44.4389 48.686 44.8142 47.7866 45.416 46.9934C45.9062 46.3555 46.8055 45.827 48.0102 45.827C50.2695 45.827 51.3188 46.8052 51.8472 48.8392H58.4656C57.8277 44.4353 54.8944 39.9615 48.0102 39.9615C44.7781 39.9615 42.5188 41.0129 40.5614 42.9681C37.8476 45.6861 37.8513 49.2735 37.8553 53.1295C37.8555 53.2782 37.8556 53.4273 37.8556 53.5767C37.8556 53.7262 37.8555 53.8753 37.8553 54.024C37.8513 57.8809 37.8476 61.4672 40.5614 64.1831C42.5188 66.1394 44.8908 67.193 48.0102 67.193C50.9457 67.193 53.5037 66.5519 55.7959 64.1831ZM94.4544 66.9687C97.2411 66.9687 99.8353 66.1777 101.679 64.3341C102.032 63.9785 102.34 63.6185 102.613 63.2531C99.4753 73.8704 88.3142 81.1124 78.245 82.3334C73.6042 82.8927 69.0398 83.3952 64.718 83.871C58.3109 84.5763 52.4369 85.223 47.6371 85.909C39.604 87.0578 34.4573 89.6542 32.0426 96.6237C22.9231 89.1389 15.6133 74.6888 15.6133 57.3065C15.6133 53.9881 15.982 50.7626 16.6647 47.6499L23.0391 66.9698H27.9276L36.8042 40.1869H29.9594L25.5205 55.1588L21.0073 40.1869H18.993C25.7295 23.8265 41.824 12.3054 60.6144 12.3054C80.232 12.3054 95.5737 24.8626 101.176 42.374C99.3747 40.8565 96.9972 40.1869 94.4544 40.1869H84.5275V66.9687H94.4544ZM91.4229 45.5996H94.0028C95.6571 45.5996 96.5608 46.3884 97.1637 47.2944C97.6889 48.0449 97.8782 48.9859 97.8782 53.5002C97.8782 58.0507 97.6889 58.6874 97.1637 59.4402C96.5608 60.3417 95.6571 60.786 94.0028 60.786H91.4229V45.5996Z" fill="white"/>
<path d="M126.053 29.3054H124.821L121.317 19.8494V29.3054H119.877V17.8174H121.973L125.461 27.2574L128.965 17.8174H130.997V29.3054H129.573V19.8494L126.053 29.3054Z" fill="white"/>
<path d="M133.725 19.4814V17.8174H135.293V19.4814H133.725ZM135.229 20.9374V29.3054H133.789V20.9374H135.229Z" fill="white"/>
<path d="M138.177 27.3054V22.1694H136.881V20.9374H138.177V18.4894H139.601V20.9374H141.505V22.1694H139.601V27.0814C139.601 27.9614 140.033 28.1214 140.769 28.1214C141.105 28.1214 141.345 28.1054 141.681 28.0254V29.2574C141.313 29.3374 140.897 29.3854 140.417 29.3854C138.993 29.3854 138.177 28.9054 138.177 27.3054Z" fill="white"/>
<path d="M150.799 28.5534C150.799 31.0014 149.183 32.3614 146.911 32.3614C145.071 32.3614 143.727 31.5134 143.263 29.9774L144.607 29.4654C144.879 30.5374 145.743 31.1614 146.911 31.1614C148.383 31.1614 149.359 30.4094 149.359 28.6654V27.7214C148.911 28.5374 147.967 29.1134 146.799 29.1134C144.511 29.1134 143.167 27.2254 143.167 24.9374C143.167 22.6654 144.511 20.7774 146.799 20.7774C147.951 20.7774 148.911 21.3534 149.359 22.1694V20.9374H150.799V28.5534ZM149.375 24.8094C149.375 22.9374 148.255 22.0414 147.055 22.0414C145.535 22.0414 144.607 23.1774 144.607 24.9374C144.607 26.6974 145.535 27.8494 147.055 27.8494C148.255 27.8494 149.375 26.9534 149.375 25.1134V24.8094Z" fill="white"/>
<path d="M154.955 17.8174V29.3054H153.515V17.8174H154.955Z" fill="white"/>
<path d="M157.615 19.4814V17.8174H159.183V19.4814H157.615ZM159.119 20.9374V29.3054H157.679V20.9374H159.119Z" fill="white"/>
<path d="M165.187 29.4814C162.867 29.4814 161.267 27.7054 161.267 25.1294C161.267 22.6334 162.851 20.7774 165.123 20.7774C167.459 20.7774 168.691 22.5534 168.691 24.8734V25.3534H162.643C162.723 27.1134 163.731 28.2334 165.187 28.2334C166.307 28.2334 167.107 27.6254 167.363 26.6334L168.627 27.0814C168.115 28.5694 166.851 29.4814 165.187 29.4814ZM165.107 22.0094C163.891 22.0094 162.979 22.8254 162.723 24.2494H167.235C167.203 23.0654 166.563 22.0094 165.107 22.0094Z" fill="white"/>
<path d="M173.875 29.4814C171.555 29.4814 170.227 27.4974 170.227 25.1294C170.227 22.7454 171.555 20.7774 173.875 20.7774C175.043 20.7774 175.971 21.3374 176.467 22.1534V17.8174H177.907V29.3054H176.467V28.0894C175.971 28.9214 175.043 29.4814 173.875 29.4814ZM176.499 24.8414C176.499 22.8894 175.315 22.0414 174.131 22.0414C172.563 22.0414 171.683 23.3214 171.683 25.1294C171.683 26.9214 172.563 28.2174 174.131 28.2174C175.315 28.2174 176.499 27.3534 176.499 25.4334V24.8414Z" fill="white"/>
<path d="M184.239 19.4814V17.8174H185.807V19.4814H184.239ZM185.743 20.9374V29.3054H184.303V20.9374H185.743Z" fill="white"/>
<path d="M189.906 24.2974V29.3054H188.466V20.9374H189.906V22.0734C190.354 21.3854 191.154 20.7774 192.322 20.7774C193.442 20.7774 194.226 21.3374 194.642 22.2014C195.106 21.5134 196.002 20.7774 197.314 20.7774C199.042 20.7774 200.082 22.0094 200.082 23.7854V29.3054H198.642V24.1694C198.642 23.0014 198.162 22.1214 196.978 22.1214C196.018 22.1214 194.994 22.9374 194.994 24.2974V29.3054H193.554V24.1694C193.554 23.0014 193.074 22.1214 191.89 22.1214C190.93 22.1214 189.906 22.9374 189.906 24.2974Z" fill="white"/>
<path d="M124.853 51.3054H123.237L118.869 39.8174H120.517L124.069 49.3854L127.621 39.8174H129.189L124.853 51.3054Z" fill="white"/>
<path d="M133.196 51.4814C130.876 51.4814 129.276 49.7054 129.276 47.1294C129.276 44.6334 130.86 42.7774 133.132 42.7774C135.468 42.7774 136.7 44.5534 136.7 46.8734V47.3534H130.652C130.732 49.1134 131.74 50.2334 133.196 50.2334C134.316 50.2334 135.116 49.6254 135.372 48.6334L136.636 49.0814C136.124 50.5694 134.86 51.4814 133.196 51.4814ZM133.116 44.0094C131.9 44.0094 130.988 44.8254 130.732 46.2494H135.244C135.212 45.0654 134.572 44.0094 133.116 44.0094Z" fill="white"/>
<path d="M143.149 42.9054V44.3614C142.909 44.3134 142.717 44.2974 142.445 44.2974C141.229 44.2974 140.253 45.2574 140.253 46.7294V51.3054H138.813V42.9374H140.253V44.3614C140.621 43.5134 141.437 42.8734 142.573 42.8734C142.797 42.8734 143.005 42.8894 143.149 42.9054Z" fill="white"/>
<path d="M149.086 51.4814C147.918 51.4814 146.99 50.9214 146.494 50.0894V51.3054H145.054V39.8174H146.494V44.1534C146.99 43.3374 147.918 42.7774 149.086 42.7774C151.406 42.7774 152.734 44.7454 152.734 47.1294C152.734 49.4974 151.406 51.4814 149.086 51.4814ZM146.462 46.8414V47.4334C146.462 49.3534 147.646 50.2174 148.83 50.2174C150.398 50.2174 151.278 48.9214 151.278 47.1294C151.278 45.3214 150.398 44.0414 148.83 44.0414C147.646 44.0414 146.462 44.8894 146.462 46.8414Z" fill="white"/>
<path d="M160.906 49.4814C160.906 50.1054 160.954 50.7774 161.034 51.3054H159.61C159.578 51.0654 159.562 50.7774 159.546 50.4414C159.034 51.0494 158.106 51.4494 157.018 51.4494C155.498 51.4494 154.25 50.5374 154.25 49.0334C154.25 47.3694 155.562 46.6654 157.434 46.2974L159.514 45.8814V45.3694C159.514 44.4414 158.842 44.0414 157.818 44.0414C156.714 44.0414 156.106 44.5054 155.994 45.4014H154.586C154.714 43.6254 156.106 42.7774 157.898 42.7774C159.754 42.7774 160.906 43.6254 160.906 45.1614V49.4814ZM159.514 48.4574V47.0014L157.818 47.3534C156.538 47.6094 155.69 47.9614 155.69 48.9694C155.69 49.7854 156.298 50.2814 157.21 50.2814C158.442 50.2814 159.514 49.5294 159.514 48.4574Z" fill="white"/>
<path d="M163.554 51.3054V42.9374H164.994V44.0734C165.474 43.3854 166.306 42.7774 167.49 42.7774C169.266 42.7774 170.274 44.0094 170.274 45.7854V51.3054H168.834V46.1694C168.834 45.0014 168.338 44.1214 167.09 44.1214C166.05 44.1214 164.994 44.9214 164.994 46.3134V51.3054H163.554Z" fill="white"/>
<path d="M175.977 51.4814C173.657 51.4814 172.329 49.4974 172.329 47.1294C172.329 44.7454 173.657 42.7774 175.977 42.7774C177.145 42.7774 178.073 43.3374 178.569 44.1534V39.8174H180.009V51.3054H178.569V50.0894C178.073 50.9214 177.145 51.4814 175.977 51.4814ZM178.601 46.8414C178.601 44.8894 177.417 44.0414 176.233 44.0414C174.665 44.0414 173.785 45.3214 173.785 47.1294C173.785 48.9214 174.665 50.2174 176.233 50.2174C177.417 50.2174 178.601 49.3534 178.601 47.4334V46.8414Z" fill="white"/>
<path d="M189.476 51.4814C187.156 51.4814 185.828 49.4974 185.828 47.1294C185.828 44.7454 187.156 42.7774 189.476 42.7774C190.644 42.7774 191.572 43.3374 192.068 44.1534V39.8174H193.508V51.3054H192.068V50.0894C191.572 50.9214 190.644 51.4814 189.476 51.4814ZM192.1 46.8414C192.1 44.8894 190.916 44.0414 189.732 44.0414C188.164 44.0414 187.284 45.3214 187.284 47.1294C187.284 48.9214 188.164 50.2174 189.732 50.2174C190.916 50.2174 192.1 49.3534 192.1 47.4334V46.8414Z" fill="white"/>
<path d="M199.553 51.4814C197.233 51.4814 195.633 49.7054 195.633 47.1294C195.633 44.6334 197.217 42.7774 199.489 42.7774C201.825 42.7774 203.057 44.5534 203.057 46.8734V47.3534H197.009C197.089 49.1134 198.097 50.2334 199.553 50.2334C200.673 50.2334 201.473 49.6254 201.729 48.6334L202.993 49.0814C202.481 50.5694 201.217 51.4814 199.553 51.4814ZM199.473 44.0094C198.257 44.0094 197.345 44.8254 197.089 46.2494H201.601C201.569 45.0654 200.929 44.0094 199.473 44.0094Z" fill="white"/>
<path d="M209.505 42.9054V44.3614C209.265 44.3134 209.073 44.2974 208.801 44.2974C207.585 44.2974 206.609 45.2574 206.609 46.7294V51.3054H205.169V42.9374H206.609V44.3614C206.977 43.5134 207.793 42.8734 208.929 42.8734C209.153 42.8734 209.361 42.8894 209.505 42.9054Z" fill="white"/>
<path d="M222.946 51.3054V49.5934C222.482 50.6494 221.25 51.4814 219.602 51.4814C216.674 51.4814 214.498 49.0814 214.498 45.5934C214.498 42.0894 216.69 39.6414 219.698 39.6414C221.906 39.6414 223.474 40.8414 224.162 42.8254L222.69 43.3054C222.274 41.8494 221.218 41.0014 219.714 41.0014C217.538 41.0014 216.034 42.8574 216.034 45.5774C216.034 48.2814 217.538 50.1534 219.73 50.1534C221.586 50.1534 222.834 48.7294 222.866 46.6814H219.57V45.3374H224.354V51.3054H222.946Z" fill="white"/>
<path d="M231.278 42.9054V44.3614C231.038 44.3134 230.846 44.2974 230.574 44.2974C229.358 44.2974 228.382 45.2574 228.382 46.7294V51.3054H226.942V42.9374H228.382V44.3614C228.75 43.5134 229.566 42.8734 230.702 42.8734C230.926 42.8734 231.134 42.8894 231.278 42.9054Z" fill="white"/>
<path d="M234.272 41.5454V39.8814H235.872V41.5454H234.272ZM237.024 41.5454V39.8814H238.624V41.5454H237.024ZM239.824 42.9374V51.3054H238.384V50.1534C237.904 50.8574 237.088 51.4814 235.904 51.4814C234.112 51.4814 233.104 50.2494 233.104 48.4734V42.9374H234.544V48.1694C234.544 49.3534 235.056 50.1534 236.288 50.1534C237.328 50.1534 238.384 49.3694 238.384 47.9774V42.9374H239.824Z" fill="white"/>
<path d="M242.535 51.3054V42.9374H243.975V44.0734C244.455 43.3854 245.287 42.7774 246.471 42.7774C248.247 42.7774 249.255 44.0094 249.255 45.7854V51.3054H247.815V46.1694C247.815 45.0014 247.319 44.1214 246.071 44.1214C245.031 44.1214 243.975 44.9214 243.975 46.3134V51.3054H242.535Z" fill="white"/>
<path d="M254.958 51.4814C252.638 51.4814 251.31 49.4974 251.31 47.1294C251.31 44.7454 252.638 42.7774 254.958 42.7774C256.126 42.7774 257.054 43.3374 257.55 44.1534V39.8174H258.99V51.3054H257.55V50.0894C257.054 50.9214 256.126 51.4814 254.958 51.4814ZM257.582 46.8414C257.582 44.8894 256.398 44.0414 255.214 44.0414C253.646 44.0414 252.766 45.3214 252.766 47.1294C252.766 48.9214 253.646 50.2174 255.214 50.2174C256.398 50.2174 257.582 49.3534 257.582 47.4334V46.8414Z" fill="white"/>
<path d="M265.035 51.4814C262.715 51.4814 261.115 49.7054 261.115 47.1294C261.115 44.6334 262.699 42.7774 264.971 42.7774C267.307 42.7774 268.539 44.5534 268.539 46.8734V47.3534H262.491C262.571 49.1134 263.579 50.2334 265.035 50.2334C266.155 50.2334 266.955 49.6254 267.211 48.6334L268.475 49.0814C267.963 50.5694 266.699 51.4814 265.035 51.4814ZM264.955 44.0094C263.739 44.0094 262.827 44.8254 262.571 46.2494H267.083C267.051 45.0654 266.411 44.0094 264.955 44.0094Z" fill="white"/>
<path d="M274.987 42.9054V44.3614C274.747 44.3134 274.555 44.2974 274.283 44.2974C273.067 44.2974 272.091 45.2574 272.091 46.7294V51.3054H270.651V42.9374H272.091V44.3614C272.459 43.5134 273.275 42.8734 274.411 42.8734C274.635 42.8734 274.843 42.8894 274.987 42.9054Z" fill="white"/>
<path d="M126.453 64.9374V73.3054H125.013V72.1534C124.533 72.8574 123.717 73.4814 122.533 73.4814C120.741 73.4814 119.733 72.2494 119.733 70.4734V64.9374H121.173V70.1694C121.173 71.3534 121.685 72.1534 122.917 72.1534C123.957 72.1534 125.013 71.3694 125.013 69.9774V64.9374H126.453Z" fill="white"/>
<path d="M129.164 73.3054V64.9374H130.604V66.0734C131.084 65.3854 131.916 64.7774 133.1 64.7774C134.876 64.7774 135.884 66.0094 135.884 67.7854V73.3054H134.444V68.1694C134.444 67.0014 133.948 66.1214 132.7 66.1214C131.66 66.1214 130.604 66.9214 130.604 68.3134V73.3054H129.164Z" fill="white"/>
<path d="M141.588 73.4814C139.268 73.4814 137.94 71.4974 137.94 69.1294C137.94 66.7454 139.268 64.7774 141.588 64.7774C142.756 64.7774 143.684 65.3374 144.18 66.1534V61.8174H145.62V73.3054H144.18V72.0894C143.684 72.9214 142.756 73.4814 141.588 73.4814ZM144.212 68.8414C144.212 66.8894 143.028 66.0414 141.844 66.0414C140.276 66.0414 139.396 67.3214 139.396 69.1294C139.396 70.9214 140.276 72.2174 141.844 72.2174C143.028 72.2174 144.212 71.3534 144.212 69.4334V68.8414Z" fill="white"/>
<path d="M150.879 70.9374L152.079 69.9774C152.799 71.3534 154.095 72.1534 155.583 72.1534C157.071 72.1534 158.223 71.4174 158.223 70.1054C158.223 68.7134 156.895 68.4734 155.151 68.0574C153.343 67.6254 151.551 67.1294 151.551 64.9694C151.551 62.9534 153.295 61.6414 155.471 61.6414C157.471 61.6414 158.911 62.6014 159.599 63.8974L158.431 64.8254C157.839 63.7214 156.927 62.9694 155.439 62.9694C154.047 62.9694 153.039 63.7374 153.039 64.8414C153.039 66.0574 154.111 66.3134 155.727 66.6974C157.631 67.1454 159.727 67.5454 159.727 69.9774C159.727 72.1214 157.823 73.4814 155.551 73.4814C153.567 73.4814 151.663 72.4894 150.879 70.9374Z" fill="white"/>
<path d="M165.195 73.4814C162.875 73.4814 161.275 71.7054 161.275 69.1294C161.275 66.6334 162.859 64.7774 165.131 64.7774C167.467 64.7774 168.699 66.5534 168.699 68.8734V69.3534H162.651C162.731 71.1134 163.739 72.2334 165.195 72.2334C166.315 72.2334 167.115 71.6254 167.371 70.6334L168.635 71.0814C168.123 72.5694 166.859 73.4814 165.195 73.4814ZM165.115 66.0094C163.899 66.0094 162.987 66.8254 162.731 68.2494H167.243C167.211 67.0654 166.571 66.0094 165.115 66.0094Z" fill="white"/>
<path d="M172.251 61.8174V73.3054H170.811V61.8174H172.251Z" fill="white"/>
<path d="M179.007 73.4814C177.839 73.4814 176.911 72.9214 176.415 72.0894V73.3054H174.975V61.8174H176.415V66.1534C176.911 65.3374 177.839 64.7774 179.007 64.7774C181.327 64.7774 182.655 66.7454 182.655 69.1294C182.655 71.4974 181.327 73.4814 179.007 73.4814ZM176.383 68.8414V69.4334C176.383 71.3534 177.567 72.2174 178.751 72.2174C180.319 72.2174 181.199 70.9214 181.199 69.1294C181.199 67.3214 180.319 66.0414 178.751 66.0414C177.567 66.0414 176.383 66.8894 176.383 68.8414Z" fill="white"/>
<path d="M183.867 71.5294L184.987 70.7134C185.435 71.6894 186.459 72.2814 187.547 72.2814C188.523 72.2814 189.387 71.8654 189.387 70.9534C189.387 70.0414 188.587 69.9134 187.211 69.6254C185.835 69.3214 184.395 69.0174 184.395 67.3054C184.395 65.8174 185.691 64.7774 187.467 64.7774C188.971 64.7774 190.203 65.5134 190.699 66.5054L189.675 67.3214C189.243 66.4894 188.459 65.9614 187.403 65.9614C186.443 65.9614 185.803 66.4414 185.803 67.1934C185.803 67.9774 186.539 68.1214 187.707 68.3774C189.147 68.7134 190.795 69.0014 190.795 70.8254C190.795 72.4254 189.339 73.4814 187.547 73.4814C186.027 73.4814 184.507 72.8254 183.867 71.5294Z" fill="white"/>
<path d="M193.12 71.3054V66.1694H191.824V64.9374H193.12V62.4894H194.544V64.9374H196.448V66.1694H194.544V71.0814C194.544 71.9614 194.976 72.1214 195.712 72.1214C196.048 72.1214 196.288 72.1054 196.624 72.0254V73.2574C196.256 73.3374 195.84 73.3854 195.36 73.3854C193.936 73.3854 193.12 72.9054 193.12 71.3054Z" fill="white"/>
<path d="M197.726 71.5294L198.846 70.7134C199.294 71.6894 200.318 72.2814 201.406 72.2814C202.382 72.2814 203.246 71.8654 203.246 70.9534C203.246 70.0414 202.446 69.9134 201.07 69.6254C199.694 69.3214 198.254 69.0174 198.254 67.3054C198.254 65.8174 199.55 64.7774 201.326 64.7774C202.83 64.7774 204.062 65.5134 204.558 66.5054L203.534 67.3214C203.102 66.4894 202.318 65.9614 201.262 65.9614C200.302 65.9614 199.662 66.4414 199.662 67.1934C199.662 67.9774 200.398 68.1214 201.566 68.3774C203.006 68.7134 204.654 69.0014 204.654 70.8254C204.654 72.4254 203.198 73.4814 201.406 73.4814C199.886 73.4814 198.366 72.8254 197.726 71.5294Z" fill="white"/>
<path d="M206.979 71.3054V66.1694H205.683V64.9374H206.979V62.4894H208.403V64.9374H210.307V66.1694H208.403V71.0814C208.403 71.9614 208.835 72.1214 209.571 72.1214C209.907 72.1214 210.147 72.1054 210.483 72.0254V73.2574C210.115 73.3374 209.699 73.3854 209.219 73.3854C207.795 73.3854 206.979 72.9054 206.979 71.3054Z" fill="white"/>
<path d="M213.265 63.5454V61.8814H214.865V63.5454H213.265ZM216.017 63.5454V61.8814H217.617V63.5454H216.017ZM218.545 71.4814C218.545 72.1054 218.593 72.7774 218.673 73.3054H217.249C217.217 73.0654 217.201 72.7774 217.185 72.4414C216.673 73.0494 215.745 73.4494 214.657 73.4494C213.137 73.4494 211.889 72.5374 211.889 71.0334C211.889 69.3694 213.201 68.6654 215.073 68.2974L217.153 67.8814V67.3694C217.153 66.4414 216.481 66.0414 215.457 66.0414C214.353 66.0414 213.745 66.5054 213.633 67.4014H212.225C212.353 65.6254 213.745 64.7774 215.537 64.7774C217.393 64.7774 218.545 65.6254 218.545 67.1614V71.4814ZM217.153 70.4574V69.0014L215.457 69.3534C214.177 69.6094 213.329 69.9614 213.329 70.9694C213.329 71.7854 213.937 72.2814 214.849 72.2814C216.081 72.2814 217.153 71.5294 217.153 70.4574Z" fill="white"/>
<path d="M221.192 73.3054V64.9374H222.632V66.0734C223.112 65.3854 223.944 64.7774 225.128 64.7774C226.904 64.7774 227.912 66.0094 227.912 67.7854V73.3054H226.472V68.1694C226.472 67.0014 225.976 66.1214 224.728 66.1214C223.688 66.1214 222.632 66.9214 222.632 68.3134V73.3054H221.192Z" fill="white"/>
<path d="M233.615 73.4814C231.295 73.4814 229.967 71.4974 229.967 69.1294C229.967 66.7454 231.295 64.7774 233.615 64.7774C234.783 64.7774 235.711 65.3374 236.207 66.1534V61.8174H237.647V73.3054H236.207V72.0894C235.711 72.9214 234.783 73.4814 233.615 73.4814ZM236.239 68.8414C236.239 66.8894 235.055 66.0414 233.871 66.0414C232.303 66.0414 231.423 67.3214 231.423 69.1294C231.423 70.9214 232.303 72.2174 233.871 72.2174C235.055 72.2174 236.239 71.3534 236.239 69.4334V68.8414Z" fill="white"/>
<path d="M240.284 63.4814V61.8174H241.852V63.4814H240.284ZM241.788 64.9374V73.3054H240.348V64.9374H241.788Z" fill="white"/>
<path d="M251.599 72.5534C251.599 75.0014 249.983 76.3614 247.711 76.3614C245.871 76.3614 244.527 75.5134 244.063 73.9774L245.407 73.4654C245.679 74.5374 246.543 75.1614 247.711 75.1614C249.183 75.1614 250.159 74.4094 250.159 72.6654V71.7214C249.711 72.5374 248.767 73.1134 247.599 73.1134C245.311 73.1134 243.967 71.2254 243.967 68.9374C243.967 66.6654 245.311 64.7774 247.599 64.7774C248.751 64.7774 249.711 65.3534 250.159 66.1694V64.9374H251.599V72.5534ZM250.175 68.8094C250.175 66.9374 249.055 66.0414 247.855 66.0414C246.335 66.0414 245.407 67.1774 245.407 68.9374C245.407 70.6974 246.335 71.8494 247.855 71.8494C249.055 71.8494 250.175 70.9534 250.175 69.1134V68.8094Z" fill="white"/>
<path d="M257.66 73.4814C255.34 73.4814 253.74 71.7054 253.74 69.1294C253.74 66.6334 255.324 64.7774 257.596 64.7774C259.932 64.7774 261.164 66.5534 261.164 68.8734V69.3534H255.116C255.196 71.1134 256.204 72.2334 257.66 72.2334C258.78 72.2334 259.58 71.6254 259.836 70.6334L261.1 71.0814C260.588 72.5694 259.324 73.4814 257.66 73.4814ZM257.58 66.0094C256.364 66.0094 255.452 66.8254 255.196 68.2494H259.708C259.676 67.0654 259.036 66.0094 257.58 66.0094Z" fill="white"/>
<path d="M263.276 73.3054V64.9374H264.716V66.0734C265.196 65.3854 266.028 64.7774 267.212 64.7774C268.988 64.7774 269.996 66.0094 269.996 67.7854V73.3054H268.556V68.1694C268.556 67.0014 268.06 66.1214 266.812 66.1214C265.772 66.1214 264.716 66.9214 264.716 68.3134V73.3054H263.276Z" fill="white"/>
<path d="M119.877 95.3054V83.8174H123.525C127.013 83.8174 129.221 86.0574 129.221 89.5614C129.221 93.0654 127.013 95.3054 123.525 95.3054H119.877ZM121.381 93.9774H123.525C126.133 93.9774 127.717 92.2334 127.717 89.5614C127.717 86.8734 126.133 85.1454 123.509 85.1454H121.381V93.9774Z" fill="white"/>
<path d="M134.696 95.4814C132.376 95.4814 130.776 93.7054 130.776 91.1294C130.776 88.6334 132.36 86.7774 134.632 86.7774C136.968 86.7774 138.2 88.5534 138.2 90.8734V91.3534H132.152C132.232 93.1134 133.24 94.2334 134.696 94.2334C135.816 94.2334 136.616 93.6254 136.872 92.6334L138.136 93.0814C137.624 94.5694 136.36 95.4814 134.696 95.4814ZM134.616 88.0094C133.4 88.0094 132.488 88.8254 132.232 90.2494H136.744C136.712 89.0654 136.072 88.0094 134.616 88.0094Z" fill="white"/>
<path d="M146.953 86.9374V95.3054H145.513V94.1534C145.033 94.8574 144.217 95.4814 143.033 95.4814C141.241 95.4814 140.233 94.2494 140.233 92.4734V86.9374H141.673V92.1694C141.673 93.3534 142.185 94.1534 143.417 94.1534C144.457 94.1534 145.513 93.3694 145.513 91.9774V86.9374H146.953Z" fill="white"/>
<path d="M149.888 93.3054V88.1694H148.592V86.9374H149.888V84.4894H151.312V86.9374H153.216V88.1694H151.312V93.0814C151.312 93.9614 151.744 94.1214 152.48 94.1214C152.816 94.1214 153.056 94.1054 153.392 94.0254V95.2574C153.024 95.3374 152.608 95.3854 152.128 95.3854C150.704 95.3854 149.888 94.9054 149.888 93.3054Z" fill="white"/>
<path d="M154.493 93.5294L155.613 92.7134C156.061 93.6894 157.085 94.2814 158.173 94.2814C159.149 94.2814 160.013 93.8654 160.013 92.9534C160.013 92.0414 159.213 91.9134 157.837 91.6254C156.461 91.3214 155.021 91.0174 155.021 89.3054C155.021 87.8174 156.317 86.7774 158.093 86.7774C159.597 86.7774 160.829 87.5134 161.325 88.5054L160.301 89.3214C159.869 88.4894 159.085 87.9614 158.029 87.9614C157.069 87.9614 156.429 88.4414 156.429 89.1934C156.429 89.9774 157.165 90.1214 158.333 90.3774C159.773 90.7134 161.421 91.0014 161.421 92.8254C161.421 94.4254 159.965 95.4814 158.173 95.4814C156.653 95.4814 155.133 94.8254 154.493 93.5294Z" fill="white"/>
<path d="M164.387 91.1294C164.387 93.0334 165.411 94.2174 166.899 94.2174C168.051 94.2174 168.739 93.4814 168.979 92.4414L170.259 93.0334C169.859 94.4254 168.643 95.4814 166.899 95.4814C164.563 95.4814 162.947 93.7054 162.947 91.1294C162.947 88.5374 164.563 86.7774 166.899 86.7774C168.643 86.7774 169.827 87.7854 170.227 89.1774L168.979 89.8014C168.739 88.7774 168.051 88.0254 166.899 88.0254C165.411 88.0254 164.387 89.2094 164.387 91.1294Z" fill="white"/>
<path d="M172.155 95.3054V83.8174H173.595V88.0734C174.075 87.3854 174.907 86.7774 176.091 86.7774C177.867 86.7774 178.875 88.0094 178.875 89.7854V95.3054H177.435V90.1694C177.435 89.0014 176.939 88.1214 175.691 88.1214C174.651 88.1214 173.595 88.9214 173.595 90.3134V95.3054H172.155Z" fill="white"/>
<path d="M182.946 83.8174V95.3054H181.506V83.8174H182.946Z" fill="white"/>
<path d="M191.702 93.4814C191.702 94.1054 191.75 94.7774 191.83 95.3054H190.406C190.374 95.0654 190.358 94.7774 190.342 94.4414C189.83 95.0494 188.902 95.4494 187.814 95.4494C186.294 95.4494 185.046 94.5374 185.046 93.0334C185.046 91.3694 186.358 90.6654 188.23 90.2974L190.31 89.8814V89.3694C190.31 88.4414 189.638 88.0414 188.614 88.0414C187.51 88.0414 186.902 88.5054 186.79 89.4014H185.382C185.51 87.6254 186.902 86.7774 188.694 86.7774C190.55 86.7774 191.702 87.6254 191.702 89.1614V93.4814ZM190.31 92.4574V91.0014L188.614 91.3534C187.334 91.6094 186.486 91.9614 186.486 92.9694C186.486 93.7854 187.094 94.2814 188.006 94.2814C189.238 94.2814 190.31 93.5294 190.31 92.4574Z" fill="white"/>
<path d="M194.349 95.3054V86.9374H195.789V88.0734C196.269 87.3854 197.101 86.7774 198.285 86.7774C200.061 86.7774 201.069 88.0094 201.069 89.7854V95.3054H199.629V90.1694C199.629 89.0014 199.133 88.1214 197.885 88.1214C196.845 88.1214 195.789 88.9214 195.789 90.3134V95.3054H194.349Z" fill="white"/>
<path d="M206.773 95.4814C204.453 95.4814 203.125 93.4974 203.125 91.1294C203.125 88.7454 204.453 86.7774 206.773 86.7774C207.941 86.7774 208.869 87.3374 209.365 88.1534V83.8174H210.805V95.3054H209.365V94.0894C208.869 94.9214 207.941 95.4814 206.773 95.4814ZM209.397 90.8414C209.397 88.8894 208.213 88.0414 207.029 88.0414C205.461 88.0414 204.581 89.3214 204.581 91.1294C204.581 92.9214 205.461 94.2174 207.029 94.2174C208.213 94.2174 209.397 93.3534 209.397 91.4334V90.8414Z" fill="white"/>
<path d="M220.544 95.4814C218.224 95.4814 216.624 93.7054 216.624 91.1294C216.624 88.6334 218.208 86.7774 220.48 86.7774C222.816 86.7774 224.048 88.5534 224.048 90.8734V91.3534H218C218.08 93.1134 219.088 94.2334 220.544 94.2334C221.664 94.2334 222.464 93.6254 222.72 92.6334L223.984 93.0814C223.472 94.5694 222.208 95.4814 220.544 95.4814ZM220.464 88.0094C219.248 88.0094 218.336 88.8254 218.08 90.2494H222.592C222.56 89.0654 221.92 88.0094 220.464 88.0094Z" fill="white"/>
<path d="M225.653 95.3054V93.4174H227.477V95.3054H225.653Z" fill="white"/>
<path d="M233.318 95.3054H231.702L227.334 83.8174H228.982L232.534 93.3854L236.086 83.8174H237.654L233.318 95.3054Z" fill="white"/>
<path d="M237.512 95.3054V93.4174H239.336V95.3054H237.512Z" fill="white"/>
</svg>
